<svg width="105" height="38" viewBox="0 0 105 38" fill="none" xmlns="http://www.w3.org/2000/svg">
<g clip-path="url(#clip0_998_1951)">
<path fill-rule="evenodd" clip-rule="evenodd" d="M2.62199 27.965L2.65192 28.057C2.69064 28.1763 2.73274 28.2978 2.77668 28.418C2.83539 28.5782 2.89883 28.7388 2.96507 28.8955C3.03064 29.0505 3.10161 29.2076 3.17616 29.3624C3.25051 29.5164 3.32882 29.6692 3.40887 29.8165C3.48931 29.9646 3.57467 30.1131 3.66264 30.2581C3.75042 30.4026 3.84263 30.5464 3.93669 30.6856C4.03141 30.826 4.13029 30.9651 4.23053 31.099C4.33037 31.2328 4.43572 31.3669 4.54358 31.4977C4.6497 31.6266 4.76133 31.7556 4.87498 31.8808C4.98719 32.0044 5.10461 32.1278 5.22406 32.2473C5.34273 32.3663 5.46595 32.4838 5.59013 32.5968C5.71431 32.7099 5.84293 32.8215 5.97242 32.9285C6.1021 33.0358 6.23603 33.1413 6.37055 33.2421C6.50477 33.3426 6.64372 33.4415 6.78345 33.5363C6.92346 33.631 7.06725 33.7234 7.21064 33.8107C7.3551 33.8988 7.50332 33.9842 7.65116 34.0646C7.80083 34.1462 7.9534 34.2245 8.10481 34.2975C8.25748 34.3714 8.4143 34.4426 8.57102 34.509C8.72783 34.5756 8.88842 34.639 9.04832 34.6978C9.209 34.7569 9.37335 34.8127 9.53693 34.8638C9.70157 34.9151 9.8692 34.9628 10.0353 35.0057C10.2023 35.0489 10.3735 35.0885 10.5439 35.1236C10.7137 35.1585 10.8879 35.1897 11.0614 35.2163C11.2354 35.243 11.4123 35.2656 11.5871 35.2834C11.7642 35.3015 11.9439 35.3152 12.1212 35.3243C12.4809 35.3425 12.8454 35.3424 13.2043 35.3242C13.3813 35.3152 13.5609 35.3015 13.7382 35.2834C13.9128 35.2656 14.0896 35.2431 14.264 35.2163C14.4376 35.1896 14.6117 35.1584 14.7815 35.1236C14.9519 35.0885 15.1229 35.0489 15.2899 35.0057C15.4561 34.9629 15.6239 34.915 15.7889 34.8637C15.9524 34.8125 16.1165 34.7567 16.2769 34.6978C16.4362 34.6393 16.5969 34.5757 16.7546 34.509C16.9115 34.4424 17.0681 34.3713 17.2201 34.2977C17.3717 34.2245 17.5245 34.1461 17.6739 34.0647C17.8219 33.9842 17.9701 33.8988 18.1147 33.8107C18.2581 33.7234 18.4019 33.631 18.5422 33.5361C18.6813 33.4418 18.8203 33.3428 18.9553 33.2418C19.0897 33.141 19.2233 33.0356 19.3528 32.9286C19.4824 32.8215 19.6111 32.7098 19.7353 32.5968C19.7647 32.57 19.824 32.515 19.824 32.515L19.8947 32.4494L21.3417 34.0072L21.165 34.1702C21.015 34.3066 20.8603 34.4407 20.7054 34.569C20.5498 34.6975 20.3892 34.824 20.228 34.9449C20.0654 35.0665 19.8986 35.1854 19.7319 35.2983C19.5651 35.4112 19.3924 35.5222 19.2187 35.628C19.0449 35.734 18.8665 35.8367 18.6887 35.9334C18.5095 36.0311 18.3259 36.1254 18.1432 36.2136C17.9597 36.3023 17.7714 36.3878 17.5833 36.4676C17.3933 36.5481 17.1999 36.6246 17.0086 36.6949C16.8167 36.7654 16.6191 36.8325 16.421 36.8943C16.2226 36.9562 16.0205 37.0138 15.8204 37.0655C15.6184 37.1177 15.4127 37.1654 15.2086 37.2072C15.003 37.2495 14.7934 37.287 14.5859 37.3189C14.3772 37.351 14.1644 37.3781 13.9533 37.3996C13.7408 37.4213 13.5251 37.4377 13.312 37.4486C13.0958 37.4596 12.8774 37.4651 12.6627 37.4651C12.4478 37.4651 12.2295 37.4596 12.0135 37.4486C11.8005 37.4377 11.5846 37.4213 11.372 37.3996C11.1609 37.3781 10.9481 37.351 10.7394 37.3189C10.5317 37.287 10.3223 37.2495 10.1168 37.2072C9.91256 37.1654 9.70679 37.1176 9.50487 37.0655C9.3047 37.0138 9.10279 36.9563 8.90474 36.8944C8.70678 36.8326 8.50893 36.7655 8.31667 36.6949C8.1247 36.6243 7.93148 36.5478 7.74241 36.4676C7.5545 36.388 7.36572 36.3024 7.18177 36.2135C6.99936 36.1254 6.8158 36.0311 6.63638 35.9333C6.45871 35.8367 6.28045 35.734 6.10654 35.6281C5.93379 35.5228 5.76124 35.4119 5.5936 35.2985C5.42636 35.1852 5.25959 35.0663 5.09795 34.9453C4.93659 34.8243 4.77572 34.6977 4.61987 34.5689C4.46401 34.44 4.30961 34.306 4.161 34.1708C4.01143 34.0345 3.86368 33.8935 3.72174 33.7514C3.57796 33.6074 3.43707 33.4593 3.30295 33.3115C3.16718 33.162 3.03344 33.0074 2.9053 32.852C2.77639 32.6957 2.64999 32.5347 2.52958 32.3736C2.40974 32.2133 2.29116 32.0463 2.17693 31.8772C2.06318 31.709 1.95242 31.536 1.84746 31.3631C1.74114 31.1882 1.63869 31.0099 1.54271 30.8329C1.44605 30.6551 1.3519 30.4713 1.26296 30.2869C1.17432 30.1031 1.08896 29.9143 1.0091 29.7256C0.929726 29.5382 0.853441 29.3447 0.782371 29.1508C0.729841 29.0074 0.679242 28.8612 0.632023 28.7163L0.602089 28.6243L2.62199 27.965ZM21.4755 14.0494V24.7842C21.4755 25.0836 21.4602 25.3856 21.43 25.6819C21.4003 25.9744 21.3553 26.2682 21.2964 26.5551C21.2383 26.8389 21.1651 27.1228 21.079 27.3989C20.9939 27.6722 20.894 27.9444 20.7824 28.2079C20.6718 28.4692 20.5469 28.7281 20.4114 28.9773C20.2771 29.2246 20.1286 29.4687 19.9703 29.7029C19.8132 29.9353 19.6428 30.1632 19.4639 30.38C19.2855 30.5961 19.0946 30.8062 18.8962 31.0047C18.6982 31.2027 18.4882 31.3937 18.2718 31.5724C18.0556 31.7511 17.8279 31.9215 17.595 32.079C17.3614 32.237 17.1173 32.3856 16.8695 32.5204C16.6204 32.656 16.3617 32.7809 16.1003 32.8917C15.8367 33.0034 15.5646 33.1032 15.2919 33.1882C15.0154 33.2744 14.7316 33.3476 14.4483 33.4056C14.162 33.4645 13.8683 33.5095 13.5755 33.5393C13.2793 33.5695 12.9773 33.5848 12.6779 33.5848C12.3786 33.5848 12.0767 33.5695 11.7805 33.5393C11.4875 33.5095 11.1936 33.4645 10.9073 33.4056C10.6243 33.3476 10.3405 33.2744 10.0641 33.1883C9.79112 33.1032 9.51898 33.0033 9.25544 32.8916C8.99412 32.7809 8.73531 32.656 8.48608 32.5203C8.23849 32.3856 7.99467 32.2372 7.7611 32.0793C7.52782 31.9214 7.30005 31.7509 7.08407 31.5725C6.86771 31.3938 6.65763 31.2027 6.45953 31.0046C6.26125 30.8061 6.07031 30.5961 5.89214 30.3801C5.71309 30.1634 5.54265 29.9353 5.38536 29.7026C5.22719 29.4686 5.0787 29.2245 4.94422 28.977C4.80877 28.7279 4.68396 28.4691 4.57336 28.2079C4.4618 27.9444 4.36184 27.6721 4.27676 27.3988C4.19081 27.123 4.11763 26.8393 4.05943 26.5554C4.00046 26.2681 3.9555 25.9742 3.92582 25.6819C3.89556 25.3856 3.88029 25.0836 3.88029 24.7842V20.8191H6.00718V24.7842C6.00718 25.0114 6.01878 25.2409 6.0417 25.4664C6.06422 25.6873 6.09825 25.9099 6.14282 26.1279C6.1871 26.3432 6.24249 26.5578 6.30727 26.7658C6.37137 26.9716 6.44687 27.1775 6.53166 27.3778C6.61538 27.5753 6.70993 27.7715 6.81279 27.9606C6.91469 28.1481 7.02722 28.3333 7.1473 28.511C7.26688 28.688 7.39643 28.861 7.53207 29.0254C7.66761 29.1895 7.81272 29.3492 7.96354 29.5002C8.11368 29.6503 8.27329 29.7955 8.43822 29.9318C8.60267 30.0676 8.77572 30.1971 8.95245 30.3168C9.12976 30.4367 9.31489 30.5493 9.50245 30.6513C9.69145 30.7542 9.88751 30.8488 10.085 30.9325C10.2844 31.017 10.4903 31.0926 10.6971 31.157C10.9058 31.2221 11.1204 31.2774 11.3349 31.3215C11.5514 31.366 11.7738 31.4 11.9961 31.4227C12.4488 31.4687 12.9076 31.4688 13.3599 31.4226C13.5819 31.4 13.8042 31.366 14.0207 31.3215C14.2354 31.2774 14.4502 31.2221 14.6588 31.157C14.8654 31.0926 15.0713 31.017 15.2706 30.9325C15.4681 30.8489 15.6642 30.7543 15.8533 30.6514C16.0411 30.5492 16.2263 30.4365 16.4037 30.3166C16.5801 30.1972 16.7529 30.0677 16.9177 29.9318C17.0826 29.7955 17.2422 29.6502 17.3922 29.5002C17.543 29.3493 17.6882 29.1895 17.8237 29.0253C17.9595 28.8609 18.0889 28.688 18.2083 28.5112C18.3286 28.3333 18.4411 28.1482 18.5428 27.9609C18.6458 27.7717 18.7404 27.5754 18.8241 27.3778C18.9089 27.1775 18.9843 26.9717 19.0485 26.7659C19.1134 26.5576 19.1688 26.3428 19.213 26.1275C19.2575 25.91 19.2916 25.6875 19.3141 25.4664C19.337 25.2409 19.3486 25.0114 19.3486 24.7842V14.0494H21.4755ZM25.3558 19.8699V24.7986C25.3558 25.0145 25.3502 25.2331 25.3394 25.4483C25.3284 25.6635 25.3118 25.8797 25.2903 26.0908C25.2689 26.3017 25.2416 26.5144 25.2096 26.7232C25.1777 26.9315 25.1402 27.1413 25.0979 27.3466C25.0557 27.5523 25.0079 27.7584 24.9561 27.9591C24.9039 28.1614 24.8463 28.3637 24.7849 28.5601C24.7234 28.7576 24.6562 28.9554 24.5855 29.1481C24.5141 29.3425 24.4375 29.5361 24.358 29.7235C24.278 29.912 24.1926 30.1006 24.104 30.284C24.0151 30.4682 23.9208 30.6518 23.8237 30.83C23.7278 31.0064 23.6252 31.1847 23.5185 31.3599C23.4137 31.5321 23.3028 31.705 23.1885 31.8738C23.0738 32.0432 22.955 32.2101 22.8351 32.3701L22.7771 32.4475L21.0741 31.1732L21.1319 31.0959C21.232 30.9623 21.3311 30.8233 21.4261 30.6828C21.5207 30.543 21.6131 30.3993 21.7006 30.2554C21.7886 30.1106 21.8742 29.9621 21.9549 29.814C22.0352 29.6664 22.1136 29.5136 22.1879 29.3598C22.2617 29.2071 22.3327 29.0504 22.3991 28.8938C22.4654 28.7372 22.5292 28.5763 22.5883 28.4154C22.647 28.2556 22.7027 28.0913 22.7538 27.9272C22.8044 27.7651 22.8523 27.5972 22.8961 27.428C22.9395 27.2597 22.979 27.0886 23.0138 26.9192C23.0488 26.7491 23.08 26.5748 23.1067 26.401C23.1335 26.2259 23.156 26.0489 23.1737 25.875C23.1916 25.699 23.2054 25.5192 23.2144 25.3402C23.2236 25.1616 23.2283 24.9794 23.2283 24.7986V19.8699H25.3558ZM71.6863 12.7114L73.4983 18.4082C73.9185 19.7147 74.3387 21.4917 74.3387 21.4917H74.3913L76.9385 12.7114H81.219L76.5708 26.2739C75.4942 29.4097 74.2074 30.5073 71.5025 30.5073H67.79L68.719 27.1885H70.1895C71.45 27.1885 71.949 26.6921 71.949 25.7774C71.949 25.2025 71.6863 24.4186 71.135 23.0074L67.1696 12.7114H71.6863ZM8.01013 11.6409L10.0361 12.2705L10.0074 12.3627C9.98023 12.4504 9.95709 12.5407 9.93849 12.631C9.91988 12.7223 9.90561 12.8157 9.89616 12.9088C9.88652 13.0042 9.88179 13.101 9.88179 13.1962V24.781C9.88179 24.8763 9.88661 24.9732 9.89625 25.0691C9.90561 25.1615 9.91988 25.2548 9.93849 25.3462C9.95709 25.4365 9.98023 25.5267 10.0074 25.6144C10.034 25.7001 10.0656 25.7862 10.101 25.8705C10.1362 25.9536 10.1758 26.0358 10.2186 26.1145C10.2614 26.1934 10.3084 26.2712 10.3587 26.3456C10.4084 26.4193 10.4628 26.492 10.5202 26.5616C10.5769 26.6305 10.6375 26.6973 10.7006 26.7604C10.7639 26.8238 10.8307 26.8847 10.8994 26.9413C10.9681 26.9983 11.0406 27.0526 11.1151 27.1029C11.19 27.1535 11.2676 27.2007 11.3457 27.2432C11.425 27.2864 11.507 27.3259 11.5894 27.3609C11.673 27.3962 11.7593 27.4279 11.846 27.4549C11.9334 27.4821 12.0233 27.5052 12.1134 27.5237C12.2041 27.5424 12.2974 27.5566 12.3909 27.566C12.5786 27.5851 12.7771 27.5851 12.9648 27.566C13.0582 27.5566 13.1517 27.5423 13.2427 27.5237C13.3327 27.5052 13.4224 27.4821 13.5095 27.4549C13.5963 27.4279 13.6826 27.3963 13.7657 27.3611C13.8485 27.326 13.9308 27.2864 14.01 27.2432C14.0883 27.2007 14.1657 27.1536 14.2403 27.1031C14.3149 27.0527 14.3873 26.9985 14.4556 26.9419C14.5249 26.8848 14.5918 26.8238 14.6548 26.7607C14.718 26.6976 14.7789 26.6304 14.8359 26.5612C14.8931 26.4918 14.9474 26.4193 14.9971 26.3455C15.0472 26.2712 15.0942 26.1936 15.1369 26.1149C15.1799 26.0358 15.2196 25.9535 15.2547 25.8704C15.2901 25.7862 15.3218 25.6999 15.3485 25.6138C15.3756 25.5264 15.3986 25.4364 15.4172 25.3461C15.4358 25.2549 15.4502 25.1613 15.4595 25.0684C15.4692 24.9729 15.474 24.8762 15.474 24.781V22.7537H17.5952V24.781C17.5952 24.9481 17.5867 25.1168 17.5699 25.2824C17.5532 25.4468 17.5281 25.6116 17.4952 25.7722C17.4629 25.9306 17.4221 26.0893 17.3742 26.2439C17.3266 26.3971 17.2708 26.5498 17.2083 26.6977C17.1468 26.8434 17.0771 26.9884 17.001 27.1287C16.9259 27.267 16.843 27.4036 16.7547 27.5345C16.6675 27.6637 16.5725 27.7911 16.4722 27.9128C16.3718 28.0345 16.265 28.1521 16.1547 28.2626C16.0444 28.3731 15.927 28.4799 15.8059 28.58C15.6853 28.6797 15.5581 28.775 15.4276 28.863C15.2971 28.9515 15.1607 29.0345 15.0224 29.1096C14.8826 29.1857 14.7378 29.2555 14.5917 29.3173C14.445 29.3794 14.2929 29.4352 14.1397 29.4829C13.9854 29.531 13.8267 29.5718 13.668 29.6044C13.507 29.6373 13.3427 29.6624 13.1796 29.679C13.0138 29.6959 12.8451 29.7045 12.6779 29.7045C12.5106 29.7045 12.3419 29.6959 12.1762 29.6791C12.0129 29.6624 11.8487 29.6373 11.6882 29.6045C11.5293 29.5719 11.3704 29.531 11.2159 29.4829C11.0628 29.4351 10.9106 29.3793 10.7633 29.317C10.6177 29.2554 10.4731 29.1857 10.3333 29.1096C10.1951 29.0345 10.0587 28.9515 9.92769 28.8628C9.79752 28.7748 9.67015 28.6795 9.54925 28.5795C9.42863 28.4798 9.31138 28.3731 9.2006 28.2622C9.09049 28.1519 8.98395 28.0345 8.88397 27.9133C8.7834 27.7913 8.68824 27.6637 8.60088 27.5344C8.51257 27.4035 8.42974 27.2669 8.35463 27.1282C8.27875 26.9884 8.20904 26.8435 8.14743 26.6976C8.08495 26.5498 8.02922 26.3973 7.98179 26.2446C7.93367 26.0896 7.89289 25.9307 7.86049 25.7722C7.82761 25.6115 7.80255 25.447 7.78586 25.2832C7.76909 25.1171 7.7606 24.9482 7.7606 24.781V13.1962C7.7606 13.0291 7.76899 12.8603 7.78577 12.6947C7.80255 12.5302 7.82761 12.3655 7.86049 12.2049C7.89289 12.0466 7.93367 11.8879 7.98159 11.7331L8.01013 11.6409ZM50.4027 8.36273V12.7722H52.8526V15.4871H50.4027V21.8754C50.4027 22.9402 50.9822 23.2063 51.9043 23.2063C52.273 23.2063 52.6945 23.1797 52.8526 23.1797V26.3472C52.4838 26.4536 51.6671 26.5601 50.508 26.5601C48.0055 26.5601 46.2142 25.735 46.2142 22.8071V15.4871H44.4229V12.7722H46.2142V8.36273H50.4027ZM38.398 12.243C39.3884 12.243 40.2534 12.4164 40.9922 12.7622C41.7308 13.1084 42.3434 13.5819 42.8298 14.183C43.3163 14.784 43.6811 15.4856 43.9244 16.2868C44.1676 17.0885 44.2891 17.9445 44.2891 18.8551C44.2891 19.2744 44.2664 19.6658 44.2216 20.0301C44.1763 20.3946 44.1358 20.6585 44.1 20.8223H36.3983C36.6144 21.6421 37.0016 22.2116 37.5601 22.5301C38.1185 22.849 38.7763 23.0082 39.533 23.0082C40.0012 23.0082 40.4559 22.9398 40.8976 22.8032C41.3389 22.6667 41.8029 22.4617 42.2894 22.1885L43.9975 24.8105C43.2585 25.3391 42.2487 25.9001 41.357 26.1639C40.4652 26.4277 39.641 26.5601 38.8844 26.5601C37.8933 26.5601 36.9746 26.4005 36.128 26.0819C35.281 25.7635 34.5471 25.299 33.9255 24.6886C33.304 24.0785 32.8128 23.327 32.4527 22.4344C32.0921 21.5422 31.9122 20.5313 31.9122 19.4016C31.9122 18.2907 32.0967 17.2935 32.4663 16.4098C32.8353 15.5265 33.3216 14.7751 33.9255 14.1556C34.529 13.5366 35.218 13.0627 35.9927 12.7349C36.7673 12.407 37.569 12.243 38.398 12.243ZM87.6548 12.243C89.3792 12.243 90.8514 12.7046 91.9233 13.5287L89.9343 16.4733C89.9343 16.4733 88.9935 15.6582 87.6506 15.6352C85.8126 15.6037 84.729 16.9449 84.729 19.4016C84.729 21.8582 85.8126 23.1994 87.6506 23.1679C88.9935 23.1449 89.9343 22.3298 89.9343 22.3298L91.9233 25.2744C90.8514 26.0985 89.3792 26.5601 87.6548 26.5601C83.4006 26.5601 80.6169 23.4695 80.6169 19.4016C80.6169 15.3336 83.4006 12.243 87.6548 12.243ZM98.5464 12.243C100.567 12.243 101.931 12.6149 102.902 13.3587C104.056 14.2086 104.635 15.5368 104.635 17.2368V26.2148H100.513V24.7008H100.435C99.6484 25.843 98.4677 26.5601 96.4476 26.5601C93.7717 26.5601 91.8564 25.0993 91.8564 22.4164C91.8564 19.4149 94.2176 18.5118 96.9986 18.1398C99.5172 17.8211 100.409 17.5555 100.409 16.6259C100.409 15.7493 99.7464 15.321 98.5727 15.3139C97.1229 15.3052 95.1623 16.7818 95.1623 16.7818L93.3408 14.1104C93.3408 14.1104 95.2422 12.243 98.5464 12.243ZM12.0236 0.551609C12.4556 0.529672 12.8933 0.529672 13.3247 0.551609C13.5381 0.562432 13.7545 0.57886 13.9675 0.600507C14.1789 0.622056 14.3922 0.649211 14.6013 0.681294C14.8094 0.713088 15.0193 0.750679 15.2252 0.792813C15.4297 0.834753 15.636 0.882394 15.8383 0.934481C16.0388 0.986182 16.2411 1.04368 16.4396 1.10543C16.6373 1.16708 16.8354 1.23415 17.0287 1.30489C17.2208 1.37534 17.4145 1.45178 17.6042 1.53198C17.7924 1.61171 17.9815 1.69723 18.1658 1.78604C18.3487 1.87417 18.5326 1.9683 18.7123 2.066L18.7974 2.11209L17.7802 3.97978L17.6953 3.93359C17.5455 3.85222 17.3927 3.77394 17.2411 3.70089C17.0881 3.62715 16.931 3.55603 16.7739 3.48954C16.6166 3.42296 16.4557 3.35947 16.2955 3.30091C16.1348 3.24196 15.9701 3.1862 15.8061 3.13508C15.6412 3.08377 15.4731 3.03603 15.3068 2.99322C15.1393 2.95002 14.968 2.9104 14.7972 2.87542C14.6269 2.84053 14.4525 2.80932 14.2787 2.78265C14.1044 2.75598 13.9272 2.73346 13.7518 2.71568C13.5745 2.69761 13.3944 2.68379 13.2167 2.6748C12.8564 2.65664 12.4912 2.65664 12.1316 2.6748C11.9542 2.68379 11.7744 2.69761 11.5967 2.71558C11.4217 2.73337 11.2445 2.75598 11.0699 2.78265C10.896 2.80932 10.7214 2.84053 10.5512 2.87542C10.3807 2.9104 10.2092 2.95002 10.0419 2.99312C9.87543 3.03603 9.70737 3.08377 9.54203 3.13518C9.37813 3.1862 9.21366 3.24196 9.05305 3.30091C8.89341 3.35938 8.73242 3.42286 8.57442 3.48964C8.4172 3.55622 8.26027 3.62725 8.10789 3.70069C7.95599 3.77385 7.80303 3.85222 7.65326 3.93359C7.50504 4.01409 7.35653 4.09951 7.21169 4.18755C7.06792 4.27481 6.92386 4.36719 6.78338 4.46199C6.64396 4.55612 6.50464 4.65517 6.36948 4.75616C6.2348 4.85685 6.1008 4.96218 5.97116 5.06916C5.84074 5.17662 5.71177 5.28823 5.58793 5.40082C5.46331 5.51378 5.33996 5.63129 5.22115 5.75006C5.10166 5.8694 4.98401 5.99262 4.87139 6.11641C4.75761 6.24145 4.64587 6.37017 4.53954 6.49899C4.43118 6.63013 4.32572 6.76416 4.22597 6.89732C4.12574 7.03097 4.02666 7.17003 3.93136 7.31064C3.83684 7.45037 3.74444 7.59417 3.65688 7.73806C3.56855 7.88311 3.48302 8.03154 3.40243 8.1794C3.32222 8.32686 3.24366 8.47965 3.16936 8.63349C3.09476 8.78782 3.02365 8.94466 2.95805 9.09947C2.89158 9.25612 2.82792 9.41702 2.76881 9.57782C2.70998 9.73775 2.65426 9.90194 2.60317 10.066C2.55257 10.2281 2.50458 10.396 2.46075 10.5653C2.41741 10.7335 2.37784 10.9046 2.34301 11.0739C2.30808 11.244 2.27683 11.4184 2.25013 11.5922C2.22333 11.7673 2.20079 11.9442 2.18308 12.1181C2.16518 12.2941 2.15135 12.474 2.14225 12.6529C2.13316 12.8315 2.12851 13.0136 2.12851 13.1944V24.7909C2.12851 24.9715 2.13316 25.1538 2.14225 25.3329C2.15144 25.5119 2.16518 25.6915 2.18308 25.8666C2.19382 25.9729 2.2062 26.078 2.22004 26.1825L2.23281 26.2784L0.122486 26.5565L0.109812 26.4607C0.0932676 26.3351 0.078368 26.209 0.0654034 26.0823C0.0439248 25.8715 0.0274772 25.6557 0.0164476 25.441C0.00551478 25.2254 0 25.0067 0 24.7909V13.1944C0 12.9785 0.00551478 12.76 0.0164476 12.5447C0.0274772 12.3296 0.0440215 12.1136 0.0655001 11.9023C0.0869788 11.6914 0.114166 11.4788 0.14619 11.27C0.178215 11.0617 0.215754 10.8519 0.258034 10.6466C0.300217 10.4409 0.348012 10.2348 0.399967 10.0342C0.452116 9.83188 0.509682 9.62962 0.571216 9.43316C0.632749 9.23573 0.699894 9.03791 0.770715 8.84522C0.842311 8.6505 0.91884 8.45694 0.998273 8.26985C1.07809 8.0816 1.16362 7.89306 1.25244 7.70936C1.34135 7.52536 1.43568 7.34166 1.53272 7.16346C1.6288 6.9871 1.73145 6.80881 1.83816 6.6336C1.94295 6.4614 2.05392 6.28852 2.16828 6.11969C2.28293 5.95039 2.40193 5.7834 2.5218 5.62347C2.64197 5.46295 2.76862 5.30215 2.89807 5.1455C3.02646 4.99021 3.16045 4.83569 3.29639 4.68638C3.43049 4.53901 3.57164 4.39116 3.7159 4.24688C3.85803 4.10492 4.00605 3.96393 4.15602 3.82767C4.30588 3.69171 4.46049 3.55777 4.61597 3.42963C4.77184 3.3012 4.93273 3.1748 5.09431 3.05391C5.25714 2.93234 5.42422 2.81357 5.59131 2.7007C5.75927 2.58725 5.93226 2.47641 6.10545 2.37117C6.27969 2.26526 6.45839 2.16263 6.63641 2.0659C6.81608 1.9683 7 1.87408 7.18315 1.78585C7.36688 1.69733 7.55554 1.6119 7.74411 1.53208C7.93432 1.45168 8.12792 1.37524 8.31987 1.30489C8.51318 1.23415 8.71133 1.16708 8.9087 1.10553C9.10742 1.04368 9.30983 0.986182 9.51049 0.934481C9.7127 0.882394 9.91887 0.834753 10.1234 0.792813C10.3291 0.750679 10.5389 0.713088 10.7473 0.681198C10.9568 0.649115 11.17 0.622056 11.3812 0.600507C11.5941 0.57886 11.8102 0.562432 12.0236 0.551609ZM58.322 7.4261V14.3346H58.4006C59.3688 13.0441 60.52 12.2803 62.378 12.2803C65.3088 12.2803 67.0358 14.3872 67.0358 17.3893V26.1587H62.7705V18.2584C62.7705 16.8363 62.0641 15.8619 60.6771 15.8619C59.2641 15.8619 58.322 17.0469 58.322 18.706V26.1587H54.0568V7.4261H58.322ZM12.6445 12.1092C13.2346 12.1092 13.7149 12.5858 13.7149 13.1717V24.7617C13.7149 25.3475 13.2346 25.8242 12.6445 25.8242C12.0543 25.8242 11.574 25.3475 11.574 24.7617V13.1717C11.574 12.5858 12.0543 12.1092 12.6445 12.1092ZM100.514 19.7337C99.9632 20.0259 99.1761 20.2383 98.3103 20.4508C96.6575 20.8226 95.9754 21.2477 95.9754 22.2836C95.9754 23.3727 96.7624 23.7977 97.8119 23.7977C99.4122 23.7977 100.514 22.8149 100.514 21.354V19.7337ZM12.1484 8.25441C12.483 8.22043 12.8223 8.22043 13.1568 8.25441C13.3209 8.27106 13.4861 8.29623 13.6474 8.32914C13.807 8.36186 13.9669 8.40281 14.1221 8.45111C14.276 8.49894 14.429 8.55489 14.5769 8.61752C14.7233 8.67919 14.8686 8.74918 15.0092 8.82536C15.1481 8.90077 15.2853 8.98403 15.4169 9.07289C15.5478 9.16108 15.6757 9.25672 15.7973 9.35701C15.9185 9.45692 16.0364 9.56398 16.1477 9.67512C16.2585 9.78576 16.3656 9.90338 16.4661 10.025C16.5671 10.1474 16.6628 10.2752 16.7505 10.405C16.8393 10.5362 16.9226 10.6733 16.9981 10.8123C17.0744 10.9524 17.1445 11.0977 17.2063 11.244C17.2692 11.3923 17.3252 11.5452 17.3729 11.6983C17.4211 11.8538 17.4622 12.0132 17.4948 12.1719C17.5278 12.3331 17.5529 12.4981 17.5697 12.6623C17.5866 12.8289 17.5952 12.9983 17.5952 13.166V21.0072H15.4631V13.166C15.4631 13.0705 15.4582 12.9732 15.4486 12.8769C15.4392 12.7844 15.4248 12.6909 15.406 12.5992C15.3874 12.5086 15.3642 12.4181 15.3367 12.3302C15.3101 12.2443 15.2784 12.158 15.2427 12.0735C15.2073 11.9901 15.1675 11.9077 15.1246 11.8288C15.0816 11.7496 15.0342 11.6716 14.9838 11.5971C14.9337 11.523 14.8791 11.4501 14.8214 11.3803C14.7645 11.3114 14.7034 11.2443 14.6401 11.1811C14.5764 11.1175 14.5092 11.0564 14.4402 10.9996C14.3711 10.9425 14.2982 10.8881 14.2235 10.8376C14.1482 10.7868 14.0702 10.7395 13.9916 10.6969C13.9119 10.6536 13.8295 10.614 13.7466 10.579C13.6626 10.5436 13.5758 10.5118 13.4888 10.4847C13.401 10.4574 13.3106 10.4342 13.2199 10.4157C13.1288 10.397 13.0349 10.3828 12.9411 10.3732C12.7523 10.354 12.5529 10.3541 12.3641 10.3732C12.2704 10.3828 12.1764 10.397 12.0849 10.4157C11.9945 10.4343 11.9042 10.4574 11.8167 10.4846C11.7295 10.5118 11.6428 10.5435 11.5592 10.5787C11.4759 10.6139 11.3933 10.6536 11.3137 10.6969C11.235 10.7396 11.157 10.7868 11.0821 10.8374C11.0071 10.888 10.9344 10.9423 10.8657 10.999L10.791 11.0608L9.43315 9.41868L9.50797 9.35701C9.6296 9.25672 9.75762 9.16098 9.88865 9.0726C10.02 8.98393 10.1571 8.90077 10.2961 8.82536C10.4366 8.74918 10.5822 8.67909 10.7289 8.61723C10.8764 8.55479 11.0293 8.49894 11.1833 8.45102C11.3383 8.4029 11.4979 8.36196 11.6573 8.32924C11.8192 8.29623 11.9843 8.27106 12.1484 8.25441ZM11.7793 4.46108C12.3746 4.40037 12.9784 4.40027 13.574 4.46108C13.7232 4.47638 13.8736 4.49555 14.0208 4.51831L14.1163 4.53312L13.7924 6.63853L13.6969 6.62371C13.5846 6.60648 13.4708 6.59186 13.3583 6.58033C12.906 6.53434 12.4471 6.53443 11.9949 6.58043C11.7729 6.60318 11.5505 6.63717 11.3341 6.68171C11.1194 6.72587 10.9048 6.78126 10.696 6.84643C10.4893 6.91101 10.2836 6.98664 10.0843 7.07117C9.88683 7.15493 9.69089 7.24963 9.50182 7.35266C9.314 7.45501 9.12879 7.56782 8.95141 7.68799C8.77519 7.80738 8.60226 7.93694 8.43744 8.07328C8.27263 8.20962 8.11304 8.35496 7.96311 8.50524C7.81231 8.6564 7.66712 8.81636 7.5316 8.98078C7.39588 9.1454 7.26645 9.31853 7.14707 9.49554C7.02682 9.67361 6.9142 9.85895 6.81261 10.0465C6.70956 10.236 6.61502 10.4324 6.53131 10.6304C6.44654 10.8309 6.37104 11.0371 6.30695 11.2431C6.24171 11.4525 6.18651 11.6675 6.14253 11.8821C6.09797 12.1 6.06394 12.3227 6.04142 12.5442C6.01851 12.77 6.00691 12.9998 6.00691 13.2272V19.134H3.88029V13.2272C3.88029 12.9274 3.89556 12.625 3.92572 12.3284C3.9554 12.0364 4.00034 11.7422 4.05931 11.4542C4.1175 11.17 4.19068 10.8857 4.27661 10.6092C4.36187 10.3356 4.46163 10.0631 4.57328 9.7992C4.68386 9.53757 4.80875 9.27835 4.94427 9.02872C5.07854 8.78121 5.22692 8.53681 5.38535 8.30229C5.54224 8.06979 5.71266 7.84166 5.89159 7.62437C6.07003 7.40814 6.26094 7.19773 6.4592 6.99893C6.65717 6.80062 6.86722 6.60938 7.08346 6.43053C7.2998 6.25169 7.52744 6.08097 7.76021 5.92323C7.99385 5.76501 8.23793 5.61637 8.48558 5.48139C8.73469 5.34554 8.99346 5.22053 9.25474 5.10966C9.51835 4.99772 9.79036 4.89789 10.0631 4.81267C10.3396 4.7264 10.6233 4.6531 10.9064 4.595C11.1929 4.53603 11.4865 4.491 11.7793 4.46108ZM20.6842 3.34507L20.7585 3.40666C20.9132 3.53507 21.0674 3.66919 21.2165 3.80543C21.3658 3.94188 21.5132 4.08316 21.6549 4.22551C21.7988 4.37028 21.9394 4.51854 22.0728 4.66602C22.2083 4.81573 22.3417 4.97057 22.4696 5.12618C22.5982 5.28287 22.7243 5.444 22.8444 5.60543C22.9641 5.76588 23.0824 5.93312 23.1964 6.10258C23.3099 6.27108 23.4205 6.44422 23.5252 6.61737C23.6314 6.79303 23.7337 6.97169 23.8293 7.14832C23.9257 7.3264 24.0196 7.51039 24.1085 7.69515C24.197 7.87963 24.2822 8.06875 24.3618 8.25738C24.4408 8.44476 24.517 8.63843 24.588 8.83298C24.6588 9.02646 24.7256 9.22497 24.7871 9.4231C24.848 9.61939 24.9054 9.82197 24.9576 10.0248C25.0091 10.226 25.0567 10.4324 25.0988 10.6386C25.1409 10.8444 25.1783 11.0544 25.21 11.2627C25.242 11.4724 25.2692 11.686 25.2905 11.8974C25.312 12.1083 25.3285 12.3245 25.3395 12.5402C25.3502 12.7563 25.3558 12.9754 25.3558 13.1917V18.1304H23.2359V13.1917C23.2359 13.0106 23.2313 12.828 23.2222 12.6485C23.2131 12.4692 23.1994 12.2892 23.1815 12.1136C23.164 11.9392 23.1414 11.7615 23.1147 11.5855C23.0882 11.4118 23.057 11.2373 23.0222 11.0669C22.9876 10.8971 22.9482 10.7256 22.9048 10.5571C22.8612 10.3873 22.8136 10.2191 22.7634 10.0573C22.7122 9.89256 22.6566 9.72775 22.598 9.56719C22.5393 9.40654 22.476 9.2456 22.4099 9.08863C22.3445 8.9334 22.2737 8.77614 22.1993 8.6211C22.1251 8.46684 22.047 8.31374 21.9671 8.16626C21.8867 8.01781 21.8015 7.86907 21.7138 7.72411C21.6265 7.57982 21.5345 7.43583 21.4404 7.29599C21.3459 7.15539 21.2472 7.01604 21.1472 6.88183C21.0475 6.748 20.9424 6.61359 20.8348 6.48257C20.7288 6.35349 20.6175 6.2244 20.5041 6.0989C20.3921 5.97515 20.2748 5.85158 20.1557 5.7318C20.0373 5.61269 19.9143 5.49503 19.7904 5.38183C19.6665 5.26853 19.5382 5.15678 19.4089 5.04959L19.3347 4.988L20.6842 3.34507ZM38.506 15.795C37.9833 15.795 37.5285 15.95 37.1413 16.2595C36.7536 16.5694 36.4881 17.0703 36.3441 17.7623H40.3436C40.3436 17.2342 40.2128 16.7744 39.9519 16.3825C39.6904 15.9909 39.2087 15.795 38.506 15.795ZM16.3545 5.15143L16.4415 5.1927C16.5961 5.26575 16.7504 5.34452 16.9005 5.42668C17.1468 5.56155 17.3896 5.71017 17.6222 5.86839C17.8543 6.0266 18.081 6.19741 18.2961 6.37626C18.5114 6.55521 18.7206 6.74656 18.9178 6.94518C19.1152 7.14389 19.3052 7.35442 19.4827 7.57067C19.6609 7.78799 19.8305 8.01635 19.987 8.24945C20.1445 8.48382 20.2923 8.72836 20.4262 8.97629C20.561 9.22587 20.6852 9.48514 20.7954 9.74683C20.9064 10.0108 21.0059 10.2836 21.0906 10.5574C21.1762 10.8337 21.249 11.118 21.307 11.4023C21.3411 11.5698 21.3706 11.7403 21.3948 11.9087L21.4086 12.0047L19.3132 12.3099L19.2996 12.2141C19.2811 12.0866 19.2588 11.9576 19.233 11.8306C19.1892 11.616 19.1341 11.401 19.0693 11.1916C19.0056 10.9854 18.9304 10.7791 18.846 10.5785C18.7627 10.3806 18.6686 10.1841 18.5662 9.99456C18.4647 9.8067 18.3527 9.62126 18.2332 9.44319C18.114 9.26589 17.9851 9.09256 17.8501 8.92785C17.7152 8.76343 17.5708 8.60348 17.4206 8.45224C17.2711 8.30177 17.1122 8.15635 16.9481 8.01983C16.7841 7.88361 16.6119 7.75379 16.4361 7.63413C16.2598 7.51409 16.0756 7.40141 15.8887 7.299C15.7744 7.23641 15.6576 7.17693 15.5414 7.12199L15.4543 7.08082L16.3545 5.15143Z" fill="#2D3748"/>
</g>
<defs>
<clipPath id="clip0_998_1951">
<rect width="104.635" height="36.9299" fill="white" transform="translate(0 0.535156)"/>
</clipPath>
</defs>
</svg>
