<?xml version="1.0" encoding="UTF-8"?>
<svg width="69.9188631px" height="21.467435px" viewBox="0 0 69.9188631 21.467435" version="1.1" xmlns="http://www.w3.org/2000/svg" xmlns:xlink="http://www.w3.org/1999/xlink">
    <title>Group</title>
    <g id="Page-1" stroke="none" stroke-width="1" fill="none" fill-rule="evenodd">
        <g id="Group" fill="#111439" fill-rule="nonzero">
            <polygon id="Fill-1" points="0 21.467435 21.467435 21.467435 21.467435 0 0 0"></polygon>
            <path d="M34.7997903,5.87782842 C35.1357175,5.87782842 35.5127712,5.96020277 35.8553709,6.09850433 L36.3987504,3.87209185 C35.9475719,3.70079203 35.2180919,3.50983882 34.366688,3.50983882 C31.6166707,3.50983882 30.6204142,5.27682322 30.6204142,7.42571404 L30.6204142,7.95441421 L28.5211421,7.95441421 L28.5211421,10.3224038 L30.6204142,10.3224038 L30.6204142,18.141052 L33.637208,18.141052 L33.637208,10.3224038 L35.7965321,10.3224038 L35.7965321,7.95441421 L33.637208,7.95441421 L33.637208,7.338487 C33.637208,6.28290641 34.0636378,5.87782842 34.7997903,5.87782842" id="Fill-2"></path>
            <path d="M47.7981231,15.005695 L47.7981231,10.822922 C47.2645702,10.3437192 46.6651421,10.1775147 46.1118146,10.1775147 C45.1337556,10.1775147 44.2773778,11.0798718 44.2773778,13.0180347 C44.2773778,15.0172201 44.9674298,15.918 46.1365633,15.918 C46.7788163,15.918 47.2975685,15.6742738 47.7981231,15.005695 M47.7981231,3.75680416 L50.8149168,3.75680416 L50.8149168,18.1411369 L47.7981231,18.1411369 L47.7981231,17.1316568 C47.0768925,17.8513102 46.3341889,18.3881386 45.3510347,18.3881386 C42.8184177,18.3881386 41.1831837,16.3774281 41.1831837,13.0510329 C41.1831837,9.71966378 43.2630451,7.70737608 45.4086603,7.70737608 C46.5318146,7.70737608 47.1097695,8.12567764 47.7981231,8.77108492" id="Fill-4"></path>
            <path d="M61.8234905,16.9653189 L63.1804229,15.0847816 C64.104253,15.7829619 64.9555355,16.1551629 65.8086378,16.1551629 C66.7077192,16.1551629 67.0962981,15.8125633 67.0962981,15.2790104 C67.0962981,14.607156 66.0852409,14.3025286 65.0379099,13.8924766 C63.7896776,13.4084211 62.3422426,12.5800676 62.3422426,10.8970347 C62.3422426,8.99999827 63.8835771,7.70736395 66.2334905,7.70736395 C67.7945997,7.70736395 68.957182,8.33809185 69.8249636,8.99842114 L68.4730052,10.8098076 C67.7484991,10.2845043 67.0338198,9.94032756 66.3289671,9.94032756 C65.5484125,9.94032756 65.1646863,10.2466534 65.1646863,10.7537591 C65.1646863,11.4042617 66.1182392,11.6529619 67.1736984,12.036688 C68.4647556,12.5141924 69.9188631,13.2386984 69.9188631,15.1011594 C69.9188631,16.9455442 68.4631785,18.3881265 65.734513,18.3881265 C64.3908042,18.3881265 62.8543224,17.8051976 61.8234905,16.9653189" id="Fill-6"></path>
            <polygon id="Fill-9" points="37.0182322 18.1411612 40.0367244 18.1411612 40.0367244 7.95440208 37.0182322 7.95440208"></polygon>
            <path d="M40.0529567,5.10211438 C40.0529567,5.94053726 39.373338,6.62015598 38.5349151,6.62015598 C37.6964922,6.62015598 37.0168735,5.94053726 37.0168735,5.10211438 C37.0168735,4.26369151 37.6964922,3.58407279 38.5349151,3.58407279 C39.373338,3.58407279 40.0529567,4.26369151 40.0529567,5.10211438" id="Fill-11"></path>
            <path d="M55.2341005,11.8589341 L58.2252964,11.8589341 C58.2252964,11.4641681 58.1273934,11.1204766 57.9321941,10.8274957 C57.7367522,10.5347574 57.3764402,10.3883276 56.8510156,10.3883276 C56.4600104,10.3883276 56.1199584,10.5041854 55.830253,10.7355373 C55.5404263,10.967253 55.3418302,11.3416378 55.2341005,11.8589341 M57.1339272,18.4359012 C56.3928007,18.4359012 55.705539,18.3165251 55.0723847,18.0783795 C54.4388666,17.8403553 53.8900277,17.4931456 53.4252617,17.0367504 C52.9603744,16.5807192 52.5931473,16.0190208 52.3237019,15.3516551 C52.0540139,14.6846534 51.9194731,13.9289688 51.9194731,13.0844801 C51.9194731,12.2540641 52.0575321,11.5084489 52.3338925,10.8478769 C52.6098891,10.1875477 52.9735979,9.62584922 53.4252617,9.16278163 C53.8765615,8.70007799 54.3919168,8.34583189 54.9713276,8.10064991 C55.5504957,7.85558925 56.1501664,7.73305893 56.7700971,7.73305893 C57.5109809,7.73305893 58.1577227,7.86262565 58.7103224,8.12115251 C59.2626794,8.37992201 59.7208943,8.73380416 60.0846031,9.18328423 C60.4484333,9.63252166 60.7212756,10.1569757 60.90313,10.7559185 C61.0851057,11.3553466 61.1760936,11.9951733 61.1760936,12.6758839 C61.1760936,12.9893674 61.1589879,13.2819844 61.1255043,13.5542201 C61.0916568,13.8268198 61.0614489,14.0240815 61.0345165,14.1466118 L55.2744991,14.1466118 C55.4362149,14.7593847 55.725799,15.1850867 56.1434939,15.4232322 C56.5610676,15.6614991 57.0530087,15.7806326 57.6189532,15.7806326 C57.9691958,15.7806326 58.3092478,15.7295581 58.6395945,15.627409 C58.9695771,15.52526 59.3166655,15.3720364 59.6804957,15.1678596 L60.9579653,17.1278596 C60.4052444,17.5231109 59.6501664,17.9425043 58.9831646,18.1396447 C58.3162842,18.3369064 57.6997504,18.4359012 57.1339272,18.4359012" id="Fill-12"></path>
        </g>
    </g>
</svg>