<svg width="21" height="20" viewBox="0 0 21 20" fill="none" xmlns="http://www.w3.org/2000/svg">
<path fill-rule="evenodd" clip-rule="evenodd" d="M0.634766 10.2537C0.634766 14.7832 3.4998 18.6266 7.47353 19.9824C7.97385 20.0768 8.15618 19.7602 8.15618 19.4883C8.15618 19.2447 8.14758 18.6002 8.14267 17.7447C5.36112 18.3641 4.77424 16.37 4.77424 16.37C4.31935 15.1854 3.66371 14.8701 3.66371 14.8701C2.75576 14.2337 3.73247 14.2469 3.73247 14.2469C4.73618 14.3193 5.26413 15.3038 5.26413 15.3038C6.15673 16.8704 7.6049 16.4179 8.17459 16.1554C8.26545 15.4926 8.5239 15.0413 8.80936 14.7845C6.58891 14.5258 4.25428 13.6464 4.25428 9.71741C4.25428 8.59762 4.6441 7.6824 5.28377 6.96546C5.18125 6.70613 4.83809 5.66377 5.382 4.25255C5.382 4.25255 6.2218 3.97622 8.13162 5.30309C8.92968 5.07586 9.78483 4.96193 10.6351 4.95816C11.4847 4.96193 12.3399 5.07586 13.1391 5.30309C15.0477 3.97622 15.8863 4.25255 15.8863 4.25255C16.4314 5.66377 16.0883 6.70613 15.9858 6.96546C16.6267 7.6824 17.0134 8.59762 17.0134 9.71741C17.0134 13.6559 14.6757 14.5226 12.4479 14.7769C12.807 15.0935 13.1262 15.7192 13.1262 16.6753C13.1262 18.0463 13.1146 19.1522 13.1146 19.4883C13.1146 19.7628 13.2945 20.0813 13.8021 19.9812C17.7722 18.6228 20.6348 14.7826 20.6348 10.2537C20.6348 4.59056 16.157 0 10.6338 0C5.1125 0 0.634766 4.59056 0.634766 10.2537Z" fill="#2D3748"/>
</svg>
