<svg width="21" height="20" viewBox="0 0 21 20" fill="none" xmlns="http://www.w3.org/2000/svg">
<path fill-rule="evenodd" clip-rule="evenodd" d="M1.13923 6.41311H5.0374V19.9987H1.13923V6.41311ZM2.98895 4.71379H2.96073C1.54963 4.71379 0.634766 3.67525 0.634766 2.3601C0.634766 1.01806 1.57668 0 3.016 0C4.45414 0 5.33843 1.01549 5.36666 2.35626C5.36666 3.6714 4.45414 4.71379 2.98895 4.71379ZM20.6348 20H16.2145V12.9684C16.2145 11.1282 15.5231 9.87322 14.0026 9.87322C12.8396 9.87322 12.1929 10.7197 11.8918 11.538C11.7789 11.8299 11.7966 12.2384 11.7966 12.6482V20H7.41746C7.41746 20 7.4739 7.54514 7.41746 6.41311H11.7966V8.54527C12.0553 7.61301 13.4546 6.28249 15.6877 6.28249C18.4581 6.28249 20.6348 8.23793 20.6348 12.4446V20Z" fill="#2D3748"/>
</svg>
