<svg width="20" height="20" viewBox="0 0 20 20" fill="none" xmlns="http://www.w3.org/2000/svg">
<g clip-path="url(#clip0_102_289)">
<rect width="20" height="20" fill="white"/>
<g clip-path="url(#clip1_102_289)">
<path d="M4.28346 12.5985C4.28346 13.7481 3.35432 14.6773 2.20472 14.6773C1.05511 14.6773 0.125977 13.7481 0.125977 12.5985C0.125977 11.4489 1.05511 10.5198 2.20472 10.5198H4.28346V12.5985ZM5.32283 12.5985C5.32283 11.4489 6.25196 10.5198 7.40157 10.5198C8.55117 10.5198 9.48031 11.4489 9.48031 12.5985V17.7954C9.48031 18.945 8.55117 19.8741 7.40157 19.8741C6.25196 19.8741 5.32283 18.945 5.32283 17.7954V12.5985Z" fill="#2D3748"/>
<path d="M7.40169 4.25196C6.25208 4.25196 5.32295 3.32283 5.32295 2.17322C5.32295 1.02362 6.25208 0.0944824 7.40169 0.0944824C8.5513 0.0944824 9.48043 1.02362 9.48043 2.17322V4.25196H7.40169ZM7.40169 5.30708C8.5513 5.30708 9.48043 6.23622 9.48043 7.38582C9.48043 8.53543 8.5513 9.46456 7.40169 9.46456H2.18909C1.03949 9.46456 0.110352 8.53543 0.110352 7.38582C0.110352 6.23622 1.03949 5.30708 2.18909 5.30708H7.40169Z" fill="#2D3748"/>
<path d="M15.732 7.38582C15.732 6.23622 16.6611 5.30708 17.8107 5.30708C18.9604 5.30708 19.8895 6.23622 19.8895 7.38582C19.8895 8.53543 18.9604 9.46456 17.8107 9.46456H15.732V7.38582ZM14.6926 7.38582C14.6926 8.53543 13.7635 9.46456 12.6139 9.46456C11.4643 9.46456 10.5352 8.53543 10.5352 7.38582V2.17322C10.5352 1.02362 11.4643 0.0944824 12.6139 0.0944824C13.7635 0.0944824 14.6926 1.02362 14.6926 2.17322V7.38582V7.38582Z" fill="#2D3748"/>
<path d="M12.6139 15.7166C13.7635 15.7166 14.6926 16.6458 14.6926 17.7954C14.6926 18.945 13.7635 19.8741 12.6139 19.8741C11.4643 19.8741 10.5352 18.945 10.5352 17.7954V15.7166H12.6139ZM12.6139 14.6773C11.4643 14.6773 10.5352 13.7481 10.5352 12.5985C10.5352 11.4489 11.4643 10.5198 12.6139 10.5198H17.8265C18.9761 10.5198 19.9052 11.4489 19.9052 12.5985C19.9052 13.7481 18.9761 14.6773 17.8265 14.6773H12.6139Z" fill="#2D3748"/>
</g>
</g>
<defs>
<clipPath id="clip0_102_289">
<rect width="20" height="20" fill="white"/>
</clipPath>
<clipPath id="clip1_102_289">
<rect width="20" height="20" fill="white"/>
</clipPath>
</defs>
</svg>
