<svg width="21" height="18" viewBox="0 0 21 18" fill="none" xmlns="http://www.w3.org/2000/svg">
<path fill-rule="evenodd" clip-rule="evenodd" d="M18.2787 3.13869C19.1263 2.60382 19.7766 1.75572 20.0819 0.745423C19.2883 1.2419 18.4114 1.60096 17.4758 1.79534C16.7291 0.953425 15.6621 0.428467 14.4811 0.428467C12.2154 0.428467 10.3794 2.36611 10.3794 4.75566C10.3794 5.0949 10.4135 5.42547 10.4839 5.74119C7.07487 5.56043 4.05203 3.83946 2.02703 1.21962C1.67368 1.86096 1.47177 2.60382 1.47177 3.39621C1.47177 4.8968 2.19607 6.22158 3.29721 6.99911C2.62455 6.97683 1.99181 6.77997 1.43772 6.45806V6.5113C1.43772 8.60865 2.85112 10.3581 4.73056 10.7543C4.38543 10.8558 4.02386 10.9066 3.64821 10.9066C3.38408 10.9066 3.12581 10.8806 2.87694 10.8298C3.39816 12.5483 4.91369 13.8013 6.70978 13.8347C5.3046 14.9961 3.53551 15.6869 1.61381 15.6869C1.28277 15.6869 0.955245 15.6684 0.634766 15.6275C2.45081 16.8545 4.6073 17.5713 6.92461 17.5713C14.4729 17.5713 18.598 10.9772 18.598 5.25833C18.598 5.07014 18.5957 4.88318 18.5875 4.6987C19.3892 4.08832 20.0865 3.32564 20.6348 2.45773C19.8987 2.80192 19.1075 3.03469 18.2787 3.13869Z" fill="#2D3748"/>
</svg>
