<?xml version="1.0" standalone="no"?>
<!DOCTYPE svg PUBLIC "-//W3C//DTD SVG 20010904//EN"
 "http://www.w3.org/TR/2001/REC-SVG-20010904/DTD/svg10.dtd">
<svg version="1.0" xmlns="http://www.w3.org/2000/svg"
 width="1280.000000pt" height="1280.000000pt" viewBox="0 0 1280.000000 1280.000000"
 preserveAspectRatio="xMidYMid meet">
<metadata>
Created by potrace 1.14, written by Peter Selinger 2001-2017
</metadata>
<g transform="translate(0.000000,1280.000000) scale(0.100000,-0.100000)"
fill="#000000" stroke="none">
<path d="M6109 12796 c-2 -2 -49 -7 -104 -10 -55 -4 -107 -8 -115 -11 -8 -2
-42 -6 -75 -10 -91 -8 -178 -20 -230 -32 -22 -4 -81 -14 -105 -17 -9 -1 -21
-5 -28 -10 -6 -4 -12 -5 -12 -2 0 2 -15 0 -32 -5 -18 -5 -45 -12 -61 -14 -15
-3 -53 -12 -85 -21 -31 -8 -66 -17 -77 -20 -11 -3 -24 -6 -30 -8 -31 -7 -132
-38 -145 -43 -8 -3 -19 -7 -25 -8 -21 -5 -141 -46 -160 -55 -11 -5 -74 -30
-140 -55 -118 -46 -464 -209 -475 -223 -3 -4 -35 -23 -72 -42 -38 -19 -68 -38
-68 -42 0 -4 -5 -8 -11 -8 -10 0 -199 -118 -209 -131 -3 -3 -16 -12 -30 -19
-22 -12 -269 -196 -280 -209 -3 -3 -32 -28 -65 -56 -124 -102 -382 -356 -470
-460 -22 -26 -56 -65 -75 -88 -19 -22 -74 -92 -122 -156 -48 -64 -92 -121 -98
-128 -5 -7 -10 -16 -10 -20 0 -5 -11 -20 -25 -35 -14 -15 -25 -29 -25 -32 0
-2 -31 -53 -69 -113 -38 -59 -82 -133 -99 -163 -61 -111 -202 -399 -202 -415
0 -8 -4 -15 -10 -15 -5 0 -10 -6 -10 -12 0 -11 -27 -82 -65 -173 -5 -11 -9
-22 -10 -25 0 -3 -22 -70 -49 -149 -42 -127 -89 -293 -100 -354 -3 -12 -5 -22
-6 -22 -1 0 -3 -9 -5 -20 -2 -11 -5 -29 -8 -40 -2 -11 -8 -38 -12 -60 -5 -22
-9 -44 -11 -50 -1 -5 -5 -30 -8 -55 -4 -25 -9 -53 -12 -63 -3 -10 -7 -35 -9
-55 -3 -33 -8 -69 -20 -167 -3 -16 -8 -70 -12 -120 -10 -116 -10 -4606 0
-4705 4 -41 9 -95 11 -120 8 -78 16 -132 22 -142 3 -5 20 -6 37 -2 18 4 48 8
67 10 19 1 55 5 80 9 86 12 110 15 162 21 29 4 59 11 66 16 7 6 12 6 12 1 0
-5 37 -4 87 4 143 21 177 26 201 26 25 1 25 9 6 152 -2 17 -7 71 -11 120 -8
114 -9 4392 0 4500 3 44 9 111 12 150 3 38 7 76 10 85 2 8 7 38 10 65 4 28 8
57 10 65 2 8 7 33 10 55 3 22 19 96 35 165 17 69 32 134 35 145 8 35 77 250
83 260 4 6 7 15 8 20 9 53 161 384 242 525 58 102 135 225 143 228 5 2 9 10 9
18 0 8 5 14 10 14 6 0 10 6 10 13 0 6 9 23 20 37 26 32 70 90 95 126 11 16 27
35 35 44 8 9 31 36 50 61 77 99 322 349 434 444 33 28 65 56 72 63 7 6 17 12
22 12 6 0 12 4 14 9 2 5 37 34 78 65 41 30 80 59 85 63 6 5 44 31 85 58 41 28
78 55 82 60 4 6 8 6 8 1 0 -5 8 -2 18 6 9 9 33 25 53 36 73 41 84 47 89 53 10
12 357 179 371 179 8 0 19 4 25 9 10 9 139 61 164 66 8 2 17 4 20 5 3 1 8 2
13 1 4 0 7 4 7 10 0 5 4 8 10 4 5 -3 17 -1 27 4 26 14 104 39 135 45 15 2 31
7 36 10 5 3 19 7 33 10 13 2 69 16 124 30 55 14 116 27 135 30 19 3 75 12 124
21 50 9 113 18 140 20 28 2 51 5 51 6 0 2 75 8 180 15 123 7 374 7 465 -1 41
-4 95 -8 120 -10 87 -7 307 -40 400 -60 14 -4 36 -8 50 -11 14 -3 61 -14 105
-26 44 -11 85 -21 90 -22 6 -2 44 -13 85 -26 41 -14 78 -25 83 -26 4 -1 10 -3
15 -4 4 -1 10 -2 15 -1 4 0 7 -3 7 -9 0 -5 8 -10 19 -10 17 0 75 -21 156 -55
17 -7 59 -25 95 -40 36 -15 117 -54 181 -86 64 -33 119 -59 122 -59 2 0 10 14
17 30 7 17 17 30 22 30 5 0 6 5 3 10 -3 6 -1 10 4 10 6 0 11 9 11 20 0 11 4
20 9 20 5 0 14 15 22 33 7 17 15 34 18 37 3 3 13 19 22 35 17 33 74 137 122
225 17 30 40 73 51 95 12 22 23 42 26 45 3 3 10 15 17 26 10 19 8 24 -19 44
-16 12 -35 23 -41 24 -7 1 -28 11 -47 21 -104 57 -502 228 -555 239 -5 1 -55
17 -110 35 -55 18 -109 35 -120 37 -41 10 -50 13 -50 14 0 1 -7 3 -15 5 -8 1
-44 11 -80 20 -36 9 -74 19 -85 21 -19 4 -32 7 -87 19 -82 19 -242 44 -249 39
-5 -3 -9 -1 -9 3 0 5 -8 9 -17 9 -10 1 -40 4 -68 8 -27 3 -79 9 -115 12 -36 2
-78 7 -95 10 -36 6 -611 15 -616 10z"/>
<path d="M9124 11783 c-16 -21 -40 -50 -54 -66 -14 -15 -30 -33 -35 -40 -6 -6
-39 -48 -75 -92 -36 -44 -67 -82 -70 -85 -3 -3 -39 -45 -80 -95 -41 -49 -80
-96 -87 -103 -30 -31 -34 -50 -13 -65 118 -82 413 -383 557 -567 41 -52 82
-104 90 -115 9 -10 21 -28 27 -40 6 -11 23 -36 39 -56 15 -20 27 -41 27 -47 0
-7 3 -12 8 -12 4 0 19 -21 35 -48 15 -26 33 -56 40 -67 41 -65 86 -146 103
-182 10 -24 22 -43 27 -43 4 0 7 -7 7 -15 0 -9 6 -26 14 -38 7 -12 35 -71 61
-132 26 -60 51 -119 56 -130 5 -11 18 -47 29 -80 12 -33 26 -69 31 -80 5 -11
11 -29 12 -40 2 -11 7 -27 10 -35 6 -15 39 -127 43 -145 1 -5 10 -39 19 -75 9
-36 19 -74 21 -85 2 -11 6 -31 9 -45 3 -14 7 -36 10 -50 3 -14 7 -36 10 -50 3
-14 7 -43 10 -65 3 -22 8 -51 10 -65 13 -75 21 -150 31 -305 4 -55 7 -509 8
-1010 l1 -910 370 0 369 0 0 915 c-1 1006 -5 1141 -39 1384 -9 57 -35 215 -42
251 -4 17 -7 40 -7 53 -1 12 -5 22 -10 22 -5 0 -7 3 -4 6 3 3 2 21 -4 41 -5
19 -11 43 -13 52 -1 9 -8 36 -15 61 -7 25 -14 52 -15 60 -9 42 -60 207 -92
295 -19 55 -37 110 -40 123 -3 12 -10 22 -16 22 -6 0 -8 2 -5 6 13 12 -237
550 -272 584 -3 3 -14 23 -25 45 -11 22 -25 45 -32 52 -6 7 -26 38 -45 69 -40
67 -47 79 -118 179 -30 43 -59 85 -65 93 -5 9 -16 22 -23 30 -7 8 -25 30 -40
50 -15 21 -29 39 -33 42 -3 3 -12 14 -20 26 -62 90 -324 366 -484 509 -43 39
-83 75 -89 80 -20 19 -83 65 -88 65 -3 0 -18 -17 -34 -37z"/>
<path d="M6288 11455 c-2 -2 -57 -5 -123 -9 -66 -3 -138 -8 -160 -11 -22 -3
-58 -7 -80 -10 -37 -4 -63 -8 -125 -20 -53 -11 -76 -15 -100 -20 -14 -3 -40
-9 -58 -14 -18 -5 -36 -10 -40 -11 -35 -4 -272 -77 -322 -99 -19 -8 -37 -15
-40 -16 -43 -8 -303 -131 -415 -195 -22 -13 -49 -28 -60 -34 -19 -11 -129 -84
-205 -137 -69 -48 -147 -109 -182 -141 -10 -10 -20 -18 -22 -18 -5 0 -40 -33
-156 -144 -78 -75 -199 -206 -228 -247 -8 -12 -23 -30 -31 -39 -9 -9 -25 -29
-36 -44 -11 -16 -25 -33 -30 -40 -6 -6 -28 -38 -50 -71 -22 -33 -43 -62 -46
-65 -11 -9 -147 -244 -171 -295 -12 -27 -27 -53 -31 -56 -5 -3 -9 -10 -9 -15
0 -5 -8 -27 -18 -49 -59 -130 -109 -269 -170 -470 -10 -32 -19 -75 -25 -112
-2 -12 -6 -26 -8 -31 -3 -4 -8 -30 -12 -56 -3 -27 -7 -51 -9 -55 -4 -6 -13
-66 -22 -136 -12 -96 -15 -127 -18 -191 -2 -39 -6 -76 -10 -82 -3 -6 -2 -13 4
-17 6 -3 7 -14 2 -23 -5 -12 -8 -2047 -3 -2118 1 -7 115 -10 371 -10 329 0
370 1 371 15 0 9 2 516 4 1126 1 611 6 1130 9 1155 4 25 9 59 11 75 10 68 14
91 19 115 3 14 8 34 10 45 2 11 12 49 21 85 9 36 18 70 20 75 1 6 5 17 8 25 3
8 13 40 23 70 41 132 131 324 224 475 47 77 91 138 103 143 4 2 7 10 7 17 0 7
3 15 8 17 4 2 23 23 42 48 97 126 282 306 403 393 23 17 44 33 47 36 3 4 41
30 85 58 44 29 86 57 93 63 6 6 12 8 12 5 0 -4 13 3 30 15 70 50 391 188 479
206 13 3 34 10 45 16 12 6 22 10 24 9 2 -2 27 2 82 15 70 17 199 39 295 50 85
10 342 12 428 3 128 -14 169 -19 178 -24 4 -3 10 -2 13 3 6 10 25 117 31 177
3 22 7 51 11 65 3 14 7 46 9 72 2 27 6 51 9 56 2 4 10 46 17 92 6 47 13 92 14
100 1 8 5 31 9 50 21 113 18 120 -48 125 -17 2 -31 4 -31 5 0 1 -19 2 -42 3
-24 0 -43 3 -43 6 0 4 -28 7 -63 8 -34 1 -122 3 -194 6 -73 2 -134 3 -135 2z"/>
<path d="M7611 11130 c-18 -38 -32 -71 -30 -73 2 -3 -4 -14 -14 -24 -9 -11
-14 -23 -10 -26 3 -4 1 -7 -5 -7 -7 0 -12 -5 -12 -11 0 -7 -18 -48 -39 -93
-21 -44 -56 -117 -76 -161 -70 -151 -88 -190 -92 -197 -2 -4 33 -26 79 -48 93
-45 82 -39 233 -136 180 -116 383 -293 505 -443 19 -24 40 -48 45 -54 81 -94
275 -406 275 -442 0 -8 4 -16 9 -19 14 -9 108 -252 126 -326 2 -8 15 -60 29
-115 24 -91 32 -133 39 -205 4 -30 15 -32 123 -15 134 21 168 26 204 30 19 2
46 6 60 9 14 2 48 7 75 11 28 3 66 9 85 12 19 3 44 6 55 8 11 1 46 6 78 10
l58 7 -5 47 c-3 25 -8 57 -11 71 -3 14 -9 48 -15 75 -45 233 -134 501 -236
711 -19 38 -34 76 -34 82 0 7 -4 12 -10 12 -5 0 -10 4 -10 9 0 5 -16 38 -36
73 -20 34 -42 72 -48 83 -22 39 -51 80 -61 87 -6 5 -6 8 0 8 7 0 7 3 0 8 -5 4
-35 43 -65 87 -30 44 -65 91 -77 105 -13 14 -26 33 -29 43 -3 9 -9 17 -13 17
-5 0 -29 26 -54 58 -83 105 -286 302 -408 397 -35 27 -66 52 -69 56 -9 12
-291 199 -329 218 -20 10 -76 40 -126 66 -140 73 -127 74 -164 -5z"/>
<path d="M6358 10135 c-1 -2 -56 -5 -120 -7 -65 -1 -118 -5 -118 -9 0 -3 -19
-6 -42 -8 -23 -1 -45 -4 -48 -6 -4 -2 -22 -7 -41 -10 -34 -6 -200 -51 -229
-62 -8 -4 -17 -7 -20 -8 -126 -44 -368 -181 -474 -269 l-45 -38 22 -23 c12
-13 36 -40 52 -61 25 -31 92 -112 223 -269 10 -11 37 -45 62 -75 25 -30 48
-57 52 -60 3 -3 19 -21 35 -41 l29 -36 73 53 c65 48 167 103 246 132 182 68
443 74 615 16 25 -9 52 -17 62 -19 38 -8 199 -97 263 -145 50 -38 165 -161
203 -216 75 -112 139 -262 156 -366 3 -21 9 -55 12 -75 4 -21 7 -666 7 -1433
l0 -1395 371 0 371 0 0 1420 c0 781 -3 1447 -7 1480 -5 33 -10 74 -13 90 -3
17 -6 37 -6 45 0 8 -3 22 -6 30 -3 8 -7 22 -8 30 -10 67 -70 239 -123 350 -46
96 -120 222 -134 228 -4 2 -8 8 -8 13 0 19 -113 154 -200 240 -224 221 -491
371 -796 449 -45 11 -95 23 -113 25 -17 3 -46 7 -64 10 -17 3 -72 8 -122 11
-49 3 -95 7 -102 9 -6 2 -13 2 -15 0z"/>
<path d="M4723 8938 c-10 -12 -27 -75 -22 -80 1 -2 -3 -12 -9 -24 -6 -11 -14
-43 -18 -70 -3 -27 -9 -53 -12 -59 -3 -5 -7 -23 -8 -40 -3 -52 -15 -138 -20
-146 -2 -4 0 -11 6 -14 7 -4 7 -12 2 -18 -9 -13 -8 -4147 2 -4242 7 -71 21
-173 26 -185 1 -3 3 -16 6 -30 6 -33 32 -123 53 -180 9 -25 16 -47 16 -50 0
-3 4 -11 8 -17 5 -7 6 -13 3 -13 -2 0 11 -33 31 -72 19 -40 35 -74 35 -75 -1
-4 67 -117 78 -130 5 -7 10 -15 10 -18 0 -9 53 -79 63 -83 4 -2 7 -9 7 -14 0
-6 7 -18 15 -27 8 -9 32 -36 52 -60 58 -67 173 -181 183 -181 4 0 10 -4 12 -8
2 -5 35 -32 73 -61 39 -29 79 -60 90 -69 11 -9 21 -14 22 -12 1 3 11 -2 21
-10 59 -48 305 -162 381 -176 14 -3 29 -8 35 -12 6 -3 16 -7 23 -8 6 -1 53
-11 105 -23 51 -12 109 -24 128 -27 50 -8 413 -13 425 -6 6 4 30 8 54 10 84 6
319 68 406 107 132 59 251 120 265 136 3 3 23 16 45 29 102 61 284 225 375
338 19 24 40 49 47 56 60 65 243 410 243 458 0 8 3 18 8 22 4 4 8 12 8 17 1 5
2 10 4 12 1 1 3 9 5 17 2 8 13 53 25 100 12 47 24 103 26 125 2 22 7 54 10 70
3 17 7 227 9 467 l4 436 -372 -1 -371 -2 -1 -421 c0 -315 -4 -425 -13 -436 -6
-8 -9 -17 -6 -21 14 -14 -85 -286 -108 -295 -4 -2 -8 -8 -8 -14 0 -18 -80
-122 -145 -189 -35 -36 -97 -88 -137 -115 -40 -27 -74 -52 -76 -56 -2 -5 -10
-8 -18 -8 -8 0 -25 -6 -37 -14 -33 -21 -186 -73 -235 -80 -24 -3 -48 -8 -53
-11 -12 -8 -245 -8 -279 0 -14 3 -43 8 -65 11 -22 4 -46 11 -52 16 -7 6 -13 8
-13 5 0 -7 -70 17 -127 43 -24 11 -45 20 -47 20 -8 0 -137 81 -164 103 -60 48
-164 160 -199 214 -21 32 -40 60 -44 63 -16 15 -95 209 -104 257 -3 15 -7 39
-11 53 -3 14 -7 48 -9 75 -2 28 -4 52 -5 55 -4 16 0 4125 5 4169 3 30 15 90
26 134 11 44 19 80 17 81 -4 3 -120 38 -133 40 -5 2 -32 10 -60 18 -27 9 -111
35 -185 58 -74 22 -142 44 -150 47 -17 7 -26 10 -55 17 -27 7 -76 22 -96 30
-9 4 -20 1 -26 -6z"/>
<path d="M6232 8770 c-106 -35 -192 -115 -238 -220 -19 -44 -19 -92 -22 -2105
-2 -1536 0 -2074 8 -2115 16 -75 45 -126 105 -185 119 -118 275 -142 435 -67
82 39 179 165 194 252 3 14 5 26 6 28 4 6 3 73 -2 77 -3 3 -2 23 2 45 4 23 3
40 -2 40 -5 0 -5 7 1 17 5 10 5 26 1 39 -5 12 -7 24 -4 27 9 8 10 77 2 77 -5
0 -5 8 1 17 5 10 5 26 1 39 -5 12 -6 24 -4 27 9 8 9 81 1 94 -4 6 -3 14 2 18
7 4 7 15 1 30 -5 14 -6 25 -2 25 4 0 7 25 7 55 0 30 -3 55 -7 55 -4 0 -3 11 2
24 5 15 5 27 -2 34 -6 6 -6 12 1 16 7 5 7 15 1 31 -5 14 -6 25 -2 25 4 0 7 25
7 55 0 30 -3 55 -7 55 -4 0 -3 11 2 25 6 15 6 27 0 30 -6 3 -6 15 0 30 5 13 5
27 1 29 -5 3 -5 24 -1 46 4 23 3 40 -2 40 -5 0 -5 7 1 17 5 10 5 26 1 39 -5
12 -7 24 -4 27 9 8 10 77 2 77 -5 0 -5 8 0 18 5 9 6 26 2 37 -4 11 -4 29 -1
40 8 22 7 55 -2 79 -4 9 -3 16 1 16 8 0 6 86 -3 108 -2 6 -1 12 3 12 4 0 7 25
7 55 0 30 -3 55 -7 55 -4 0 -3 11 2 25 6 15 6 26 0 30 -6 4 -7 13 -1 23 6 11
6 24 0 34 -6 10 -6 19 0 23 7 4 7 15 1 31 -6 14 -7 23 -2 21 4 -3 7 8 7 24 0
16 -3 29 -7 29 -4 0 -3 11 2 25 5 13 6 27 1 29 -4 3 -5 25 -1 50 4 24 3 52 -2
60 -5 9 -5 16 -1 16 9 0 9 102 0 116 -3 6 -2 16 3 24 5 8 5 21 -1 31 -6 11 -5
20 1 24 6 4 6 15 0 31 -6 14 -7 23 -2 21 8 -6 8 45 -1 59 -3 6 -2 16 3 24 5 8
5 21 0 31 -5 9 -6 19 -3 23 8 8 7 232 -2 246 -3 5 -3 10 2 10 9 0 9 102 0 116
-3 6 -2 16 3 24 5 8 5 21 -1 31 -6 11 -5 20 1 24 6 4 6 15 0 31 -6 14 -7 23
-2 21 8 -6 8 45 -1 59 -3 6 -2 16 3 24 5 8 5 21 0 31 -5 9 -6 19 -3 23 8 8 7
232 -2 246 -3 5 -3 10 2 10 9 0 9 102 0 116 -3 6 -2 16 3 24 5 8 5 21 -1 31
-6 11 -5 20 1 24 6 4 6 15 0 31 -6 14 -7 23 -2 21 8 -6 8 45 -1 59 -3 6 -2 16
3 24 5 8 5 21 0 31 -5 9 -6 19 -3 23 8 8 7 232 -1 245 -4 5 -2 12 4 16 6 4 7
12 3 18 -4 6 -8 27 -9 47 -1 19 -3 35 -4 35 -1 0 -3 7 -5 16 -4 20 -36 89 -50
107 -35 46 -97 97 -151 123 -78 39 -189 46 -272 19z"/>
<path d="M8695 8110 c-2 -3 -4 -872 -4 -1930 -1 -1059 -3 -1945 -5 -1970 -3
-25 -7 -61 -10 -80 -2 -19 -8 -57 -11 -85 -4 -27 -9 -59 -11 -70 -2 -11 -7
-33 -9 -49 -3 -15 -15 -63 -27 -104 -11 -42 -21 -81 -23 -87 -1 -5 -7 -23 -13
-38 -7 -16 -12 -32 -12 -37 0 -10 -48 -133 -79 -202 -10 -24 -22 -50 -25 -58
-11 -27 -108 -202 -116 -210 -3 -3 -23 -32 -44 -65 -100 -153 -265 -344 -386
-445 -22 -19 -55 -48 -73 -63 -80 -71 -357 -256 -357 -239 0 4 -4 2 -8 -5 -6
-9 -155 -86 -172 -88 -3 -1 -27 -11 -55 -24 -27 -13 -54 -24 -60 -26 -5 -1
-23 -7 -38 -13 -16 -7 -32 -12 -37 -12 -5 0 -21 -5 -37 -12 -15 -6 -32 -12
-38 -14 -5 -1 -46 -12 -90 -25 -44 -12 -91 -23 -105 -24 -14 -2 -26 -4 -27 -5
-4 -4 -14 -6 -73 -14 -30 -5 -64 -10 -75 -12 -91 -18 -442 -24 -550 -11 -27 4
-72 10 -100 13 -27 4 -59 8 -70 11 -11 2 -33 6 -49 9 -16 2 -45 8 -65 13 -20
6 -47 12 -61 15 -14 3 -46 12 -72 20 -27 8 -48 13 -48 10 0 -3 -10 1 -22 8
-13 6 -28 13 -34 14 -45 8 -303 121 -316 139 -4 6 -8 6 -8 1 0 -5 -8 -3 -17 5
-10 8 -31 21 -48 29 -35 17 -247 154 -267 172 -7 7 -38 32 -69 56 -103 78
-282 261 -369 377 -25 33 -48 62 -51 65 -17 12 -152 236 -189 311 -66 135
-138 315 -155 389 -2 8 -4 16 -5 18 -3 2 -4 6 -13 52 -4 19 -6 37 -5 40 1 3
-3 14 -9 25 -6 11 -14 42 -17 69 -4 27 -9 53 -11 57 -3 4 -7 31 -10 60 -3 30
-8 68 -11 84 -3 17 -7 383 -9 815 -2 432 -4 788 -4 793 -1 4 -167 7 -371 7
-289 0 -370 -3 -371 -12 -5 -73 -2 -1328 3 -1328 4 0 3 -12 0 -27 -7 -28 -7
-60 2 -183 9 -131 16 -206 21 -230 2 -14 6 -41 9 -60 3 -19 10 -60 16 -90 7
-30 14 -68 17 -85 16 -95 87 -331 143 -470 33 -85 121 -277 130 -285 5 -5 66
-118 84 -157 6 -13 14 -23 19 -23 4 0 7 -6 7 -13 0 -8 9 -22 20 -32 11 -10 20
-22 20 -27 0 -10 54 -90 83 -122 9 -11 17 -23 17 -27 0 -4 6 -14 13 -21 6 -7
39 -47 72 -88 113 -141 266 -297 405 -414 47 -39 87 -74 88 -78 2 -4 9 -8 15
-8 6 0 22 -11 36 -24 15 -13 71 -54 126 -90 55 -37 105 -71 112 -76 7 -6 15
-10 18 -10 3 0 23 -11 44 -24 88 -56 379 -196 406 -196 8 0 15 -4 15 -8 0 -5
6 -9 13 -10 6 0 71 -21 144 -46 118 -41 275 -84 328 -91 11 -2 38 -8 60 -13
36 -10 61 -14 160 -27 47 -6 125 -15 190 -21 75 -7 399 -7 480 -1 94 8 230 24
230 27 0 1 9 3 20 4 40 6 101 16 130 23 17 3 39 7 50 9 11 1 20 3 20 4 0 1 7
3 15 5 37 8 187 49 210 58 18 7 91 30 105 33 6 2 46 17 90 34 44 17 94 36 110
42 60 22 358 178 363 191 2 4 8 7 13 7 12 0 86 47 117 74 12 11 22 16 22 13 0
-8 211 151 280 210 49 42 303 295 335 334 90 109 270 357 289 399 3 8 20 38
36 65 31 51 103 186 105 195 0 3 6 14 12 25 60 111 173 433 209 598 3 12 7 33
10 47 3 14 7 32 9 40 2 8 4 15 5 15 1 0 3 16 6 35 5 38 12 75 14 75 1 0 3 20
5 45 3 25 7 59 9 75 17 107 20 422 21 2150 l0 1930 -368 0 c-203 0 -370 -2
-372 -5z"/>
<path d="M10049 5161 c-1 -515 -2 -947 -3 -961 -2 -14 -6 -69 -10 -123 -4 -53
-9 -103 -11 -110 -2 -6 -7 -37 -10 -67 -12 -102 -20 -147 -41 -246 -8 -39 -17
-79 -19 -90 -2 -10 -4 -19 -5 -19 -1 0 -4 -11 -7 -25 -7 -39 -11 -55 -13 -55
-1 0 -3 -9 -5 -20 -5 -24 -43 -150 -58 -190 -7 -16 -12 -33 -12 -37 0 -3 -3
-10 -7 -14 -5 -4 -8 -14 -8 -22 0 -8 -6 -28 -14 -45 -7 -18 -23 -59 -36 -92
-38 -98 -152 -332 -219 -450 -60 -103 -188 -304 -201 -315 -3 -3 -21 -27 -40
-53 -22 -31 -30 -51 -23 -55 6 -4 24 -17 39 -29 16 -12 61 -45 99 -73 39 -28
77 -56 85 -63 8 -7 27 -20 41 -29 14 -9 32 -23 40 -30 8 -8 37 -29 64 -48 28
-18 52 -36 55 -40 3 -3 41 -32 84 -63 73 -52 81 -55 93 -39 48 62 153 214 153
222 0 6 5 10 10 10 6 0 10 6 10 14 0 8 4 16 8 18 11 4 92 135 92 148 0 5 4 10
9 10 5 0 13 10 16 22 4 11 21 44 38 72 30 51 141 269 170 336 9 19 28 62 42
95 15 33 28 65 30 70 3 12 13 40 30 80 21 50 115 340 121 370 1 6 11 44 22 85
11 41 23 89 26 105 3 17 12 61 21 98 8 37 17 80 19 95 2 15 8 47 11 72 4 25 9
54 11 65 9 49 18 114 29 230 14 134 18 345 19 1170 1 506 0 928 -2 937 -4 17
-30 18 -373 17 l-369 -1 -1 -937z"/>
<path d="M2735 3260 c-44 -16 -80 -29 -80 -28 0 1 -25 -7 -55 -17 -30 -11 -59
-20 -65 -22 -67 -18 -122 -36 -182 -57 -40 -15 -81 -28 -90 -30 -10 -1 -31 -8
-46 -14 -16 -7 -33 -12 -38 -12 -6 0 -19 -5 -29 -10 -19 -10 -18 -13 11 -98
17 -48 36 -100 44 -117 7 -16 16 -41 20 -55 4 -14 23 -58 41 -98 18 -40 34
-76 34 -80 2 -11 152 -316 159 -322 3 -3 14 -21 24 -40 9 -19 26 -48 37 -65
11 -16 23 -37 27 -45 3 -8 19 -34 35 -57 15 -23 28 -44 28 -47 0 -7 60 -95 83
-120 9 -11 17 -25 17 -32 0 -7 4 -14 8 -16 4 -2 23 -25 42 -53 35 -49 56 -77
75 -99 6 -6 23 -29 39 -51 17 -22 37 -47 46 -55 9 -8 34 -37 55 -64 109 -136
371 -396 515 -512 19 -16 37 -31 40 -34 3 -3 34 -28 70 -55 36 -28 67 -52 70
-55 3 -3 21 -17 40 -30 19 -13 37 -27 40 -30 10 -13 220 -150 229 -150 5 0 11
-4 13 -8 4 -10 105 -72 117 -72 5 0 11 -3 13 -7 4 -10 49 -35 208 -115 69 -35
127 -66 128 -70 2 -5 11 -8 21 -8 9 0 22 -5 28 -11 6 -6 17 -12 24 -13 8 -1
32 -10 54 -20 67 -30 90 -39 95 -40 3 -1 41 -15 85 -33 44 -17 139 -50 210
-74 72 -23 137 -44 145 -47 8 -2 22 -6 30 -7 8 -2 60 -15 114 -29 105 -28 307
-70 391 -82 28 -3 59 -8 70 -11 11 -2 43 -6 70 -8 28 -3 66 -7 85 -9 98 -14
249 -21 475 -20 232 0 322 4 465 19 116 12 136 15 160 19 14 3 46 7 72 11 26
3 53 7 60 10 7 2 29 6 48 9 31 5 77 14 105 20 6 1 37 8 70 15 33 7 110 26 170
43 61 16 118 31 128 33 10 2 44 14 75 26 31 11 64 22 72 24 8 2 40 13 70 24
30 11 75 27 99 36 24 9 56 22 72 31 16 8 29 12 29 10 0 -3 27 8 59 25 33 16
63 29 66 29 24 0 482 244 530 282 6 5 46 31 89 59 43 28 85 57 93 65 8 8 18
14 23 14 4 0 31 18 59 40 28 22 55 40 61 40 5 0 10 4 10 8 0 5 19 22 43 39 64
48 114 89 265 224 l43 39 -74 78 c-41 42 -92 95 -112 117 -20 22 -89 95 -152
162 -63 67 -123 132 -135 145 -24 28 -47 29 -74 3 -209 -197 -493 -396 -797
-559 -38 -20 -74 -36 -81 -36 -7 0 -18 -6 -25 -13 -6 -6 -15 -12 -19 -13 -4 0
-34 -13 -66 -28 -33 -16 -65 -29 -70 -30 -6 -1 -20 -7 -31 -13 -11 -5 -54 -22
-95 -37 -41 -15 -82 -30 -90 -33 -8 -4 -17 -7 -20 -8 -3 0 -34 -11 -71 -22
-65 -22 -308 -87 -364 -98 -35 -7 -55 -11 -110 -20 -48 -8 -81 -13 -115 -19
-14 -3 -52 -8 -85 -11 -33 -4 -76 -9 -95 -11 -19 -3 -75 -6 -125 -9 -49 -2
-90 -4 -90 -5 0 -7 -47 -5 -51 2 -3 4 -10 5 -17 1 -18 -11 -364 -2 -447 12
-14 2 -47 7 -75 10 -27 3 -61 7 -75 10 -14 2 -43 7 -65 10 -112 18 -156 26
-220 41 -33 8 -71 17 -85 20 -14 3 -29 7 -35 8 -5 2 -23 6 -40 10 -16 4 -37
10 -45 13 -8 3 -23 8 -34 10 -16 3 -138 43 -186 61 -8 3 -17 6 -20 6 -3 1 -18
7 -35 13 -66 27 -90 36 -95 37 -49 8 -420 197 -570 291 -109 68 -305 206 -365
257 -11 9 -30 25 -41 35 -12 10 -43 36 -70 58 -52 42 -289 277 -339 336 -113
131 -255 314 -255 328 0 5 -4 11 -8 13 -11 4 -72 94 -72 106 0 6 -4 12 -8 14
-4 2 -25 31 -46 66 -129 214 -251 474 -332 705 -14 42 -32 77 -38 76 -6 0 -47
-14 -91 -29z"/>
</g>
</svg>
